<svg width="840" height="400.11" version="1.1" viewBox="0 0 222.25 105.86" xmlns="http://www.w3.org/2000/svg">
 <g transform="translate(386.37 -2.9209)">
  <g transform="translate(91.123 -44.496)"></g>
  <rect x="-386.37" y="2.9209" width="222.25" height="105.83" fill="#66c9a4" style="paint-order:fill markers stroke"/>
  <g fill="#40b085">
   <path d="m-236.71 81.453c-0.65324 0.45676-1.3065 0.89158-1.9597 1.6931-1.1185 4.4107-0.58318 5.0173-0.8661 7.5061z"/>
   <path d="m-257.6 93.102c-0.61945 0.63382-1.3834 1.6962-1.1299 3.0159l1.0666 12.465 4.6662 0.19999z"/>
   <path d="m-346.19 43.457-7.5993-0.13332c2.3208 17.846 3.6052 40.873 6.9623 53.537 7.0898-1.2092 6.222-1.1941 9.3329-1.7912l42.499-7.7502c2.0052 9.3784 4.0105 14.34 6.0157 21.009l5.5832 0.18946-8.1326-26.931-44.662 3.9996z"/>
  </g>
  <g>
   <path d="m-342.98 44.9-5.7123 0.95368c-1.0242 0.15878-1.4556 0.64159-1.4766 1.3488l6.9078 43.898c0.15037 0.89697 0.22458 1.7252 2.5701 1.2248l27.207-4.2968c0.023-0.45177 0.22034-0.5717 0.43928-0.65037l8.7669-1.3474c0.36398-0.0665 0.40271 0.1928 0.46179 0.43169l27.817-4.3125c1.456-0.2644 1.6423-1.0243 1.5618-1.8883l-6.9002-43.402c-0.16063-1.1267-0.78776-1.4591-1.647-1.3964l-6.1051 0.88525 0.21296 1.2494c0.0331 0.26621 0.0448 0.52418-0.49693 0.5679l-52.845 8.4333c-0.21808 0.04709-0.55602 0.0039-0.5963-0.45432z" fill="#f9f9f9"/>
   <path d="m-349.54 45.594 66.232-10.325c0.49366-0.11977 0.96665-0.39625 1.2494-1.2068l6.2329-16.483c0.20073-0.50346-0.0969-0.97341-0.85186-0.85185l-84.592 13.289c-0.42376 0.08236-0.48328 0.51748-0.0852 0.99383l11.421 14.098z" fill="#002b42" stroke="#002b42" stroke-width=".26458px"/>
   <path d="m-358.47 31.507 9.6918 12.53c0.68348 0.74356 1.163 0.46748 1.6967 0.4618l62.054-9.7079c0.55956-0.09348 0.97442-0.37736 1.1746-0.94368l5.4213-14.567c0.16392-0.50653 0.46991-1.3316-0.74293-1.1244l-79.031 12.519c-0.34329 0.07078-0.83846 0.12181-0.26476 0.83258z" fill="#333"/>
   <path d="m-361.01 29.881c0.0951-0.38303 0.17781-0.77031 0.97381-0.91356l82.625-12.971c0.51832 0.0406 0.91995 0.22125 1.1545 0.60235z" fill="#f9f9f9" stroke="#f9f9f9" stroke-width=".26458px"/>
   <path d="m-320.27 71.274c-0.73989 0.0877-1.0724 0.47564-1.0932 1.0932l1.8883 12.309c0.10425 1.0935 0.54973 1.1145 1.0222 1.0506l18.259-2.8679c0.89334-0.10862 1.175-0.58096 1.079-1.2778l-1.9309-12.039c-0.11936-1.0944-0.58809-1.1757-1.079-1.1926z" fill="#cdcdd5" stroke="#cdcdd5" stroke-width=".26458px"/>
  </g>
  <path d="m-341.99 49.495 52.703-8.3481c0.91144-0.17846 1.5112 0.04067 1.647 0.85185l3.1236 18.627c0.0509 0.60906-0.25772 0.89118-0.79508 0.96543l-53.214 8.4617c-0.47962 0.0191-0.95248 8e-3 -1.1358-1.3062l-2.8964-18.23c-0.0558-0.43878-0.11503-0.87893 0.56792-1.0222z" fill="none" stroke="#cdcdd5" stroke-width=".26458px"/>
  <path d="m-287.12 41.153 3.3733 19.717 4.8993-0.76298-3.1725-19.677z" fill="#cdcdd5"/>
  <path d="m-348.46 50.972 3.1235 19.649 5.1681-0.79506-3.0668-19.706z" fill="#cdcdd5"/>
  <g fill="#002b42">
   <g stroke="#002b42" stroke-linejoin="round">
    <path d="m-288.78 42.008-2.684 0.43131 0.2788 1.6282 2.6643-0.45283zm-3.4578 0.55077-3.2062 0.49675 0.2819 1.6492 3.1918-0.51168zm-3.979 0.61666-3.0946 0.47918 0.28545 1.6695 3.0802-0.49368zm-3.8675 0.59865-3.0022 0.46513 0.28899 1.6897 2.9878-0.47918zm-3.7751 0.58459-3.1506 0.48796 0.29257 1.7107 3.1358-0.5029zm-3.9191 0.60699-3.0591 0.47391 0.2961 1.7309 3.0439-0.48797zm-3.8285 0.59294-3.1226 0.48358 0.29966 1.7516 3.1073-0.49807zm-3.8933 0.60304-3.1305 0.48489 0.30365 1.7722 3.1148-0.49938zm-3.9011 0.60436-3.1138 0.48226 0.30676 1.7929 3.0981-0.49675zm-3.8841 0.60172-3.0123 0.46644 0.31031 1.8126 2.9966-0.4805zm-3.7839 0.58591-3.078 0.47655 0.31345 1.8333 3.0622-0.49104zm-3.8517 0.59601-3.1186 0.48314 0.31745 1.8539 3.1025-0.49719zm-3.8884 0.6026-3.0841 0.47742 0.32097 1.8741 3.0679-0.49192zm-3.8574 0.59689-2.9112 0.45107 0.36563 1.8873 2.8535-0.45766z" stroke-width=".26458px"/>
    <path d="m-288.5 44.299-4.7001 0.75237 0.42276 2.7969 4.8001-0.76643zm-5.6153 0.89907-2.8526 0.45678 0.42222 2.7947 2.8531-0.45546zm-3.7674 0.60348-2.7295 0.43702 0.42215 2.793 2.7296-0.4357zm-3.6443 0.58372-2.8033 0.44888 0.42165 2.7908 2.8033-0.44756zm-3.7185 0.59513-2.7911 0.44712 0.42156 2.789 2.7911-0.44536zm-3.7063 0.59338-2.7972 0.448 0.4215 2.7872 2.7972-0.44668zm-3.712 0.5947-2.7321 0.43746 0.42053 2.7855 2.7326-0.43614zm-3.6474 0.58415-2.7138 0.43438 0.42048 2.7837 2.7143-0.43306zm-3.6291 0.58064-2.6741 0.42823 0.42044 2.7824 2.6746-0.42692zm-3.5893 0.57493-2.7352 0.4379 0.42037 2.7807 2.7357-0.43658zm-3.65 0.58459-2.9574 0.47347 0.41982 2.7785 2.9574-0.47216zm-3.8726 0.62017-2.7082 0.4335 0.41975 2.7767 2.7082-0.43218zm-3.623 0.57976-2.7204 0.4357 0.41968 2.7749 2.72-0.43438zm-3.6351 0.5824-2.8552 0.45722 0.53569 2.7543 2.7388-0.43702z" stroke-width=".265"/>
    <g stroke-width=".26458px">
     <path d="m-287.88 47.671-2.5886 0.40847 0.30222 2.9267 2.7482-0.44404zm-3.624 0.59272-2.8315 0.44712 0.42375 2.9001 2.8298-0.45722zm-3.7476 0.59162-2.6952 0.4256 0.42549 2.9133 2.694-0.43526zm-3.6113 0.5701-2.825 0.4458 0.42729 2.9269 2.8237-0.45634zm-3.741 0.5903-2.7201 0.42911 0.42949 2.9401 2.7185-0.43921zm-3.6362 0.57361-2.7202 0.42911 0.43172 2.9533 2.7185-0.43921zm-3.6362 0.57361-2.8341 0.44712 0.43352 2.9669 2.8329-0.45766zm-3.7502 0.59162-2.8005 0.44185 0.43572 2.9805 2.7989-0.45195zm-3.7166 0.58635-2.6306 0.41506 0.43708 2.9937 2.6294-0.42472zm-3.5466 0.55956-2.8835 0.45502 0.43931 3.0073 2.8818-0.46556zm-3.7996 0.59953-2.7232 0.42955 0.44108 3.0205 2.722-0.43965zm-3.6392 0.57405-2.7572 0.43526 0.44328 3.0336 2.756-0.44492zm-3.6733 0.57976-2.9018 0.4581 0.4451 3.0473 2.9006-0.46864zm-3.8179 0.6026-4.8589 0.76686 0.5476 3.0521 4.7569-0.76819z"/>
     <path d="m-287.27 51.204-5.5049 0.87799 0.41778 2.8584 5.6422-0.99789zm-6.4209 1.0238-2.8152 0.44888 0.41708 2.8509 2.8158-0.44316zm-3.7306 0.59514-2.6885 0.42867 0.41549 2.8435 2.6896-0.42297zm-3.6044 0.57493-2.7378 0.43658 0.41434 2.8356 2.7389-0.43087zm-3.6538 0.58284-2.8614 0.45634 0.41361 2.8272 2.8621-0.4502zm-3.777 0.60216-2.6946 0.42999 0.41203 2.8197 2.6957-0.42427zm-3.6105 0.57625-2.8182 0.44932 0.41133 2.8118 2.8188-0.4436zm-3.7337 0.59557-2.8213 0.44975 0.40975 2.804 2.8223-0.44405zm-3.7373 0.59558-2.5959 0.41418 0.40904 2.7965 2.5965-0.40847zm-3.5118 0.56043-2.8645 0.45679 0.40787 2.7881 2.8652-0.45063zm-3.7805 0.6026-6.5952 1.0519 0.40555 2.7723 6.5974-1.0379zm-7.5103 1.1977-5.8041 0.92586 0.57713 2.7306 5.632-0.88589z"/>
     <path d="m-286.54 54.478-7.7382 1.2736 0.40818 2.9102 7.7399-1.3592zm-8.655 1.4208-2.499 0.40144 0.40651 2.8984 2.5005-0.39265zm-3.4153 0.54857-3.0428 0.48885 0.4048 2.8848 3.0445-0.4783zm-3.9592 0.63599-2.777 0.44624 0.40308 2.8716 2.7782-0.43614zm-3.6934 0.59337-2.6813 0.43087 0.40098 2.8588 2.6829-0.42121zm-3.5976 0.57801-2.7464 0.44097 0.39928 2.8461 2.7476-0.43131zm-3.6632 0.58854-2.8662 0.4603 0.39759 2.8329 2.8678-0.45064zm-3.7826 0.60744-2.7617 0.4436 0.39544 2.8198 2.7633-0.43394zm-3.6785 0.59074-6.5351 1.0497 0.39206 2.7938 6.5384-1.0269zm-7.4515 1.1969-2.6598 0.42735 0.39038 2.7815 2.661-0.41813zm-3.5766 0.57448-7.7094 1.2382 0.52109 2.7306 7.5782-1.1903z"/>
     <path d="m-290.83 58.695-1.9318 0.33343 9e-3 0.13998 0.29869 2.6906 1.956-0.3583-0.20221-1.6717-0.0123 2e-3 -0.11354-1.1073zm-2.8165 0.5007-2.6086 0.4155 0.36691 2.8624 2.5555-0.44888zm7.5977-0.13396-3.729 0.64217 0.19832 1.6944 3.7849-0.59805zm-11.071 0.69487-6.8616 1.095 0.33627 2.8211 6.836-1.0568zm-7.7671 1.2122-22.617 3.5054 0.32308 2.836 22.615-3.4953zm-23.537 3.6508-3.0812 0.48753 0.32174 2.8219 3.0822-0.47654zm-4.0015 0.63291-2.7708 0.43833 0.31994 2.8088 2.7717-0.42823zm-3.6911 0.58415-3.1159 0.4928 0.0935 0.4862 0.46044 2.2716 2.8815-0.44536z"/>
    </g>
   </g>
   <path d="m-342.8 44.99 0.16867 1.2087c0.0494 0.18559 0.1482 0.21469 0.25299 0.22488l52.976-8.4418c0.13639-0.03865 0.35526-0.04937 0.35149-0.36832l-0.18939-1.1206z"/>
   <path d="m-313.45 87.999 9.6047-1.5572-0.0422-0.1704c-0.0708-0.24732-0.26966-0.23264-0.32957-0.22226l-8.8134 1.356c-0.26052 0.0802-0.41253 0.27119-0.41952 0.59386z" stroke="#002b42" stroke-width=".052917"/>
  </g>
  <g transform="matrix(.81783 0 0 .81783 -41.397 22.088)" stroke-width="1.2227">
   <g transform="translate(-8.8616 1.3198)" stroke-width="1.2227">
    <path d="m-261.09 57.785c0.27517-0.31138 0.33657-2.4995-3.3948 2.4511 0.22702 0.47136 0.92059 13.811 1.7152 14.376 2.9553 2.8864 4.6878 1.9218 4.654 1.8854z" fill="#40b085"/>
    <g transform="translate(-138.61 28.568)" stroke-width="1.2227">
     <rect transform="matrix(.98894 -.14828 .14832 .98894 0 0)" x="-128.13" y="9.7551" width="10.945" height="21.171" ry="4.8906" fill="#f9f9f9" style="paint-order:fill markers stroke"/>
     <circle cx="-117.44" cy="43.869" r=".88867" fill="#cdcdd5" stroke="#cbcbd3" stroke-linecap="round" stroke-linejoin="round" stroke-width=".064704" style="paint-order:fill markers stroke"/>
    </g>
   </g>
  </g>
  <g transform="matrix(.62297 0 0 .62436 -218.97 -71.182)" stroke-width=".42424px">
   <path d="m-196.49 287.77c5.3137-14.42 15.728-39.433 15.941-43.259 0 0-2.792-11.785-2.9766-13.295-0.18928-1.5484 1.4413-19.449 2.3812-19.315 0.56015-1.3448 2.1285-0.88965 2.2369 0.19844-0.14314 4.1676-0.23913 8.1939-0.12026 11.576 0.70555-4.4979 0.93157-8.6122 2.1167-13.494 1.0363-3.0057 2.8663-1.5062 2.8939-0.21497-0.67602 4.8539-0.82881 9.0974-0.44649 12.717 0.80218-4.9452 1.6534-9.9272 2.1167-14.618 0.32235-1.8701 1.4107-2.642 1.9348-2.6887 1.1276-0.27231 1.4589 1.6661 1.4032 2.4789-0.42213 5.1176-0.55896 9.583-0.67819 14.008 0.5289-5.3707 1.3966-10.836 2.7362-16.394 0.93632-2.2719 2.562-1.69 3.0753 0.11693-0.85018 7.047-1.3399 14.094-1.1342 21.141 0.61732 0.42468 1.2854 0.44349 1.9644 0.37418 2.0773-3.3104 4.1023-7.2909 6.478-6.782 1.5405 0.19086 0.5309 1.7726 0.14031 3.0168l-2.9232 10.991c-2.6246 4.3649-5.7998 7.0782-8.6996 10.617-5.6583 14.865-8.6061 28.375-12.909 42.563z" fill="#ffcd95" stroke="#ffcf95"/>
   <path d="m-186.62 287.46s6.361-18.802 8.1384-26.192c1.7773-7.39 5.1449-14.219 6.1739-15.435 1.029-1.2161 7.9045-7.811 9.0738-10.337 1.1693-2.5257 4.3732-11.342 5.2619-12.395 0.88868-1.0524 1.2862-1.8007 1.4967-1.4967 0.21048 0.30402-0.0234 1.5902-0.0234 1.5902-1.0569 3.7795-1.9446 7.7279-3.1826 11.327-1.6244 3.4947-5.3862 6.9894-8.599 10.484l-12.799 42.3z" fill="#ffb66e" stroke="#fab96f"/>
  </g>
  <g transform="matrix(-.62297 0 0 .62436 -399.45 -71.089)" stroke-width=".42424px">
   <path d="m-196.49 287.77c5.3137-14.42 15.728-39.433 15.941-43.259 0 0-2.792-11.785-2.9766-13.295-0.18928-1.5484 1.4413-19.449 2.3812-19.315 0.56015-1.3448 2.1285-0.88965 2.2369 0.19844-0.14314 4.1676-0.23913 8.1939-0.12026 11.576 0.70555-4.4979 0.93157-8.6122 2.1167-13.494 1.0363-3.0057 2.8663-1.5062 2.8939-0.21497-0.67602 4.8539-0.82881 9.0974-0.44649 12.717 0.80218-4.9452 1.6534-9.9272 2.1167-14.618 0.32235-1.8701 1.4107-2.642 1.9348-2.6887 1.1276-0.27231 1.4589 1.6661 1.4032 2.4789-0.42213 5.1176-0.55896 9.583-0.67819 14.008 0.5289-5.3707 1.3966-10.836 2.7362-16.394 0.93632-2.2719 2.562-1.69 3.0753 0.11693-0.85018 7.047-1.3399 14.094-1.1342 21.141 0.61732 0.42468 1.2854 0.44349 1.9644 0.37418 2.0773-3.3104 4.1023-7.2909 6.478-6.782 1.5405 0.19086 0.5309 1.7726 0.14031 3.0168l-2.9232 10.991c-2.6246 4.3649-5.7998 7.0782-8.6996 10.617-5.6583 14.865-8.6061 28.375-12.909 42.563z" fill="#ffcd95" stroke="#ffcf95"/>
   <path d="m-186.62 287.46s6.361-18.802 8.1384-26.192c1.7773-7.39 5.1449-14.219 6.1739-15.435 1.029-1.2161 7.9045-7.811 9.0738-10.337 1.1693-2.5257 4.3732-11.342 5.2619-12.395 0.88868-1.0524 1.2862-1.8007 1.4967-1.4967 0.21048 0.30402-0.0234 1.5902-0.0234 1.5902-1.0569 3.7795-1.9446 7.7279-3.1826 11.327-1.6244 3.4947-5.3862 6.9894-8.599 10.484l-12.799 42.3z" fill="#ffb66e" stroke="#fab96f"/>
  </g>
  <g transform="translate(103.94 -44.638)">
   <g transform="translate(0 .13518)">
    <path d="m-340.8 126 24.707 6.7731-5.3291 20.47-27.13 9e-3z" fill="#ee3e3e"/>
    <path d="m-340.8 126 3.7404 1.0237-7.528 26.113-3.9638 0.044z" fill="#dd1a28"/>
    <g fill="#f6ffff">
     <path d="m-334.51 129.79-3.4793 11.259 14.798 4.7939 4.0078-12.007z" stroke="#fff" stroke-width=".26458px"/>
     <g>
      <rect transform="matrix(.95638 .29213 -.29288 .95615 0 0)" x="-282.08" y="235.38" width="17.064" height="1.7107" ry=".81374" style="paint-order:fill markers stroke"/>
      <rect transform="matrix(.95638 .29213 -.29288 .95615 0 0)" x="-281.62" y="238.31" width="10.655" height="1.0681" ry=".50809" style="paint-order:fill markers stroke"/>
      <rect transform="matrix(.95638 .29213 -.29288 .95615 0 0)" x="-278.24" y="240.7" width="7.9354" height=".79552" ry=".37842" style="paint-order:fill markers stroke"/>
     </g>
    </g>
    <g transform="matrix(.95565 .29645 -.29686 .95432 0 0)" fill="#ee3e3e" stroke-width=".42424" aria-label="HTML">
     <path d="m-278.94 226.35h0.74379v1.3144h1.4417v-1.3144h0.74889v3.3929h-0.74889v-1.4468h-1.4417v1.4468h-0.74379z"/>
     <path d="m-274.57 226.99h-0.9272v-0.6419h2.588v0.6419h-0.91701v2.751h-0.74379z"/>
     <path d="m-271.65 227.34-0.21397 2.3944h-0.65719l0.32095-3.3929h0.91701l0.86606 2.4352 0.84059-2.4352h0.91701l0.31077 3.3929h-0.66229l-0.23434-2.3842-0.89664 2.4199-0.60624 0.056z"/>
     <path d="m-267.76 226.35h0.7387v2.751h1.2227v0.64191h-1.9614z"/>
    </g>
   </g>
  </g>
  <path d="m-238.79 89.514 3.3967 19.24-20.4-0.0211-1.9931-15.674z" fill="#faae4e"/>
  <path d="m-254.73 92.584 2.2021 16.097-3.2647 0.0521-1.9931-15.674z" fill="#f89449"/>
  <g fill="#f6ffff">
   <ellipse transform="matrix(.98627 -.16516 .16561 .98619 0 0)" cx="-259.31" cy="55.143" rx="6.0775" ry="3.3427" style="paint-order:fill markers stroke"/>
   <rect transform="matrix(.99614 -.087743 .087985 .99612 0 0)" x="-258.76" y="80.445" width="11.68" height="1.4507" ry=".72536" style="paint-order:fill markers stroke"/>
   <rect transform="matrix(.99614 -.087743 .087985 .99612 0 0)" x="-253.51" y="83.165" width="5.8838" height=".73077" ry=".36539" style="paint-order:fill markers stroke"/>
  </g>
  <g transform="matrix(.98943 -.14949 .14969 .98806 103.52 -44.496)" fill="#faae4e" stroke-width=".42424" aria-label="CSS">
   <path d="m-369.53 89.285q-0.70377 0-1.0996-0.37827-0.39587-0.37827-0.39587-1.0688 0-0.47064 0.18474-0.83132 0.18914-0.36068 0.53222-0.55421 0.34308-0.19793 0.79173-0.19793 0.36508 0 0.70376 0.13196l-0.11876 0.56741q-0.2991-0.13635-0.5806-0.13635-0.40026 0-0.63339 0.26391-0.23312 0.25951-0.23312 0.69496 0 0.44425 0.24632 0.69057t0.68177 0.24632q0.2859 0 0.55421-0.09237l0.0968 0.54102q-0.32109 0.12316-0.73015 0.12316z"/>
   <path d="m-367.51 89.285q-0.25511 0-0.48823-0.05718-0.22873-0.05718-0.39587-0.15395l0.0528-0.5894q0.19794 0.12316 0.41346 0.19353 0.21993 0.06598 0.40466 0.06598 0.21113 0 0.34309-0.08797 0.13195-0.08797 0.13195-0.23312 0-0.11876-0.088-0.18034-0.088-0.06598-0.2771-0.14075l-0.10557-0.04399q-0.022-0.0088-0.0484-0.01759-0.0264-0.0132-0.0616-0.02639-0.24632-0.10117-0.39586-0.18914-0.14955-0.09237-0.25952-0.25511-0.10556-0.16274-0.10556-0.42226 0-0.42226 0.2859-0.66418t0.79613-0.24192q0.38707 0 0.79173 0.15835l-0.0968 0.5806q-0.16275-0.09237-0.35188-0.14515-0.18474-0.05278-0.35189-0.05278-0.20673 0-0.32109 0.08357-0.11436 0.07917-0.11436 0.21553 0 0.11876 0.0792 0.18474 0.0792 0.06598 0.25511 0.14075l0.18034 0.07038q0.25511 0.09677 0.42225 0.18914 0.16715 0.09237 0.28591 0.26831 0.11876 0.17154 0.11876 0.44865 0 0.42666-0.2903 0.66418-0.29031 0.23752-0.80933 0.23752z"/>
   <path d="m-365.17 89.285q-0.25512 0-0.48824-0.05718-0.22872-0.05718-0.39586-0.15395l0.0528-0.5894q0.19793 0.12316 0.41346 0.19353 0.21992 0.06598 0.40466 0.06598 0.21113 0 0.34309-0.08797 0.13195-0.08797 0.13195-0.23312 0-0.11876-0.088-0.18034-0.088-0.06598-0.27711-0.14075l-0.10556-0.04399q-0.022-0.0088-0.0484-0.01759-0.0264-0.0132-0.0616-0.02639-0.24632-0.10117-0.39587-0.18914-0.14955-0.09237-0.25951-0.25511-0.10556-0.16274-0.10556-0.42226 0-0.42226 0.2859-0.66418t0.79613-0.24192q0.38707 0 0.79173 0.15835l-0.0968 0.5806q-0.16274-0.09237-0.35188-0.14515-0.18474-0.05278-0.35188-0.05278-0.20673 0-0.32109 0.08357-0.11436 0.07917-0.11436 0.21553 0 0.11876 0.0792 0.18474 0.0792 0.06598 0.25512 0.14075l0.18033 0.07038q0.25512 0.09677 0.42226 0.18914 0.16714 0.09237 0.2859 0.26831 0.11876 0.17154 0.11876 0.44865 0 0.42666-0.2903 0.66418t-0.80932 0.23752z"/>
  </g>
  <g transform="matrix(1.1144 0 0 1.1144 156.9 -54.969)" stroke-width=".89737">
   <g transform="matrix(.037493 -.0066968 .009612 .042488 -446.69 73.001)" stroke-width="40.389">
    <path d="m255.56 52.524-23.241 260.36-104.47 28.962-104.18-28.922-23.217-260.4z" fill="#e44d26"/>
    <path d="m128 319.71 84.417-23.403 19.86-222.49h-104.28z" fill="#f16529"/>
    <path d="m82.82 137.69h45.18v-31.937h-80.083l0.764 8.568 7.85 88.01h71.469v-31.937h-42.261zm7.198 80.61h-32.06l4.474 50.146 65.421 18.16 0.147-0.04v-33.228l-0.14 0.037-35.568-9.604z" fill="#ebebeb"/>
    <path d="m127.89 202.33h39.327l-3.708 41.42-35.62 9.614v33.226l65.473-18.145 0.48-5.396 7.506-84.08 0.779-8.576h-74.237zm0-64.719v0.078h77.143l0.64-7.178 1.456-16.191 0.763-8.568h-80.002v31.86z" fill="#fff"/>
   </g>
  </g>
  <rect transform="rotate(-9.6955)" x="-325.98" y="-29.066" width="7.1187" height=".71785" ry=".35893" fill="#e9ebf1" style="paint-order:fill markers stroke"/>
  <rect transform="rotate(-9.6955)" x="-319.72" y="-27.755" width="14.542" height=".71785" ry=".35893" fill="#ea6d79" style="paint-order:fill markers stroke"/>
  <g fill="#e9ebf1">
   <rect transform="rotate(-9.6955)" x="-326.21" y="-27.755" width="4.8768" height=".71785" ry=".35893" style="paint-order:fill markers stroke"/>
   <rect transform="rotate(-9.6955)" x="-324.18" y="-26.169" width="5.0883" height=".71785" ry=".35893" style="paint-order:fill markers stroke"/>
   <rect transform="rotate(-9.6955)" x="-321.9" y="-24.741" width="6.4207" height=".71785" ry=".35893" style="paint-order:fill markers stroke"/>
   <rect transform="rotate(-9.6955)" x="-314.41" y="-24.741" width="3.3329" height=".71785" ry=".35893" style="paint-order:fill markers stroke"/>
  </g>
  <rect transform="rotate(-9.6955)" x="-321.85" y="-23.271" width="5.0672" height=".71785" ry=".35893" fill="#ea6d79" style="paint-order:fill markers stroke"/>
  <rect transform="rotate(-9.6955)" x="-315.55" y="-23.25" width="12.364" height=".71785" ry=".35893" fill="#40b085" style="paint-order:fill markers stroke"/>
  <g fill="#e9ebf1">
   <rect transform="rotate(-9.6955)" x="-321.89" y="-21.725" width="12.932" height=".71785" ry=".35893" style="paint-order:fill markers stroke"/>
   <rect transform="rotate(-9.6955)" x="-324.31" y="-20.289" width="3.3309" height=".71785" ry=".35893" style="paint-order:fill markers stroke"/>
   <rect transform="rotate(-9.6955)" x="-324.25" y="-18.868" width="5.6639" height=".71785" ry=".35893" style="paint-order:fill markers stroke"/>
   <rect transform="rotate(-9.6955)" x="-317.52" y="-18.868" width="12.513" height=".71785" ry=".35893" style="paint-order:fill markers stroke"/>
  </g>
  <rect transform="rotate(-9.6955)" x="-321.83" y="-17.313" width="8.5054" height=".71785" ry=".35893" fill="#40b085" style="paint-order:fill markers stroke"/>
  <rect transform="rotate(-9.6955)" x="-312.5" y="-17.313" width="1.5363" height=".71785" ry=".35893" fill="#ea6d79" style="paint-order:fill markers stroke"/>
  <g fill="#e9ebf1">
   <rect transform="rotate(-9.6955)" x="-319.74" y="-15.892" width="5.0059" height=".71785" ry=".35893" style="paint-order:fill markers stroke"/>
   <rect transform="rotate(-9.6955)" x="-313.91" y="-15.892" width="5.0059" height=".71785" ry=".35893" style="paint-order:fill markers stroke"/>
   <rect transform="rotate(-9.6955)" x="-307.44" y="-15.892" width="5.0059" height=".71785" ry=".35893" style="paint-order:fill markers stroke"/>
   <rect transform="rotate(-9.6955)" x="-299.03" y="-20.022" width="6.4207" height=".71785" ry=".35893" style="paint-order:fill markers stroke"/>
   <rect transform="rotate(-9.6955)" x="-291.54" y="-20.022" width="3.3329" height=".71785" ry=".35893" style="paint-order:fill markers stroke"/>
   <rect transform="rotate(-9.6955)" x="-298.33" y="-27.773" width="4.8768" height=".71785" ry=".35893" style="paint-order:fill markers stroke"/>
   <rect transform="rotate(-9.6955)" x="-292.76" y="-23.427" width="4.8768" height=".71785" ry=".35893" style="paint-order:fill markers stroke"/>
  </g>
  <g fill="#ea6d79">
   <rect transform="rotate(-9.6955)" x="-295.43" y="-23.481" width="1.5363" height=".71785" ry=".35893" style="paint-order:fill markers stroke"/>
   <rect transform="rotate(-9.6955)" x="-309.83" y="-24.796" width="1.5363" height=".71785" ry=".35893" style="paint-order:fill markers stroke"/>
   <rect transform="rotate(-9.6955)" x="-298.61" y="-16.04" width="1.5363" height=".71785" ry=".35893" style="paint-order:fill markers stroke"/>
  </g>
  <rect transform="rotate(-8.3148)" x="-299.57" y="-17.832" width="8.5054" height=".71785" ry=".35893" fill="#40b085" style="paint-order:fill markers stroke"/>
  <g transform="matrix(-.60366 0 0 1.3482 -651.03 -72.57)" fill="#178b5d" stroke-width="1.1085">
   <rect x="-481.19" y="119.61" width="25.998" height=".86659" ry=".39996" style="paint-order:fill markers stroke"/>
   <rect x="-481.19" y="121.61" width="25.998" height=".86659" ry=".39996" style="paint-order:fill markers stroke"/>
   <rect x="-469.36" y="123.61" width="14.355" height=".86659" ry=".39996" style="paint-order:fill markers stroke"/>
  </g>
  <g transform="matrix(.45833 0 0 .88393 -145.2 -42.889)" fill="#178b5d" stroke-width="1.5711">
   <rect x="-479" y="62.58" width="17.106" height=".86659" ry=".39996" style="paint-order:fill markers stroke"/>
   <rect x="-479" y="64.584" width="17.106" height=".86659" ry=".39996" style="paint-order:fill markers stroke"/>
   <rect x="-471.21" y="66.587" width="9.4455" height=".86659" ry=".39996" style="paint-order:fill markers stroke"/>
  </g>
  <g transform="matrix(.71549 0 0 .71549 43.571 27.873)" fill="#178b5d" stroke-width="1.1094">
   <rect transform="scale(-1,1)" x="294.81" y="96.715" width="17.106" height=".86659" ry=".39996" style="paint-order:fill markers stroke"/>
   <rect transform="scale(-1,1)" x="294.81" y="98.719" width="17.106" height=".86659" ry=".39996" style="paint-order:fill markers stroke"/>
   <rect transform="scale(-1,1)" x="302.6" y="100.72" width="9.4455" height=".86659" ry=".39996" style="paint-order:fill markers stroke"/>
  </g>
  <g fill="none" stroke="#178b5d" stroke-linecap="round" stroke-linejoin="bevel" stroke-width="1.1113">
   <circle cx="-209.64" cy="79.674" r="2.1955" style="paint-order:fill markers stroke"/>
   <circle cx="-377.85" cy="43.614" r="1.8898" style="paint-order:fill markers stroke"/>
   <circle cx="-175.71" cy="14.204" r="2.4783" style="paint-order:fill markers stroke"/>
  </g>
  <g transform="rotate(-29.822 -276.08 132.59)">
   <g transform="matrix(.5028 0 0 .5028 -5.0261 -56.789)" fill="none" stroke="#178b5d" stroke-linecap="round" stroke-linejoin="bevel" stroke-width="1.5787">
    <rect x="-360.13" y="221.54" width=".06666" height="5.1329" ry=".03333" style="paint-order:fill markers stroke"/>
    <rect transform="rotate(90)" x="224.07" y="357.53" width=".06666" height="5.1329" ry=".03333" style="paint-order:fill markers stroke"/>
   </g>
  </g>
  <g transform="rotate(23.663 -303.26 9.6046)" fill="none" stroke="#178b5d" stroke-linecap="round" stroke-linejoin="bevel" stroke-width=".79375">
   <rect x="-303.29" y="7.8428" width=".04576" height="3.5235" ry=".02288" style="paint-order:fill markers stroke"/>
   <rect transform="rotate(90)" x="9.5817" y="301.5" width=".04576" height="3.5235" ry=".02288" style="paint-order:fill markers stroke"/>
  </g>
  <circle cx="-272.99" cy="36.309" r="2.1955" fill="none" stroke="#178b5d" stroke-linecap="round" stroke-linejoin="bevel" stroke-width="1.1113" style="paint-order:fill markers stroke"/>
  <circle cx="-306.17" cy="98.905" r="2.1955" fill="none" stroke="#178b5d" stroke-linecap="round" stroke-linejoin="bevel" stroke-width="1.1113" style="paint-order:fill markers stroke"/>
  <g transform="matrix(.40135 .91593 .91593 -.40135 -129.26 354.96)" fill="none" stroke="#178b5d" stroke-linecap="round" stroke-linejoin="bevel" stroke-width=".79375">
   <rect x="-303.29" y="7.8428" width=".04576" height="3.5235" ry=".02288" style="paint-order:fill markers stroke"/>
   <rect transform="rotate(90)" x="9.5817" y="301.5" width=".04576" height="3.5235" ry=".02288" style="paint-order:fill markers stroke"/>
  </g>
  <g>
   <g fill="#f9f9f9" stroke-width=".26458" aria-label="GUARANTEED BEST GRADES">
    <path d="m-256 35.799q-0.61163 0-1.058-0.2149-0.44081-0.22041-0.67775-0.62816-0.23694-0.40776-0.23694-0.96979 0-0.58959 0.24796-1.0414 0.25347-0.45184 0.7053-0.69979 0.45735-0.24796 1.0524-0.24796 0.34163 0 0.64469 0.07714 0.30858 0.07714 0.54551 0.22041l-0.19285 0.66122q-0.2149-0.13224-0.47939-0.20388-0.26449-0.07714-0.51796-0.07714-0.36367 0-0.64469 0.1598-0.27551 0.15429-0.4298 0.44082-0.14877 0.28102-0.14877 0.65571 0 0.55102 0.33061 0.87061 0.33612 0.31408 0.91469 0.31408 0.23143 0 0.4298-0.03306v-0.76041h-0.46286v-0.64469h1.1957v1.9065q-0.56755 0.2149-1.2178 0.2149z"/>
    <path d="m-252.51 35.788q-0.45735 0-0.80449-0.19286t-0.54-0.54q-0.18735-0.35265-0.18735-0.81v-2.1986h0.80449v2.138q0 0.40775 0.19286 0.6502 0.19837 0.23694 0.53449 0.23694t0.53449-0.23694q0.19836-0.24245 0.19836-0.6502v-2.138h0.79898v2.1986q0 0.45735-0.19286 0.81-0.18734 0.34714-0.53448 0.54-0.34715 0.19286-0.80449 0.19286z"/>
    <path d="m-249.36 32.047h0.95877l1.361 3.6698h-0.82653l-0.29755-0.83755h-1.4437l-0.28102 0.83755h-0.81551zm0.95877 2.149-0.49592-1.4051-0.47938 1.4051z"/>
    <path d="m-246.63 32.047q0.16531-0.0055 0.61714-0.0055 0.45735 0 0.62265 0.0055 0.62817 0.02204 0.93674 0.30857 0.30857 0.28102 0.30857 0.76041 0 0.40775-0.20939 0.69428-0.20388 0.28102-0.57306 0.36918 0.11571 0.09367 0.23694 0.25898 0.12122 0.1598 0.33612 0.50143 0.22592 0.35816 0.45735 0.77694h-0.92572l-0.62265-1.1571q-0.0992-0.18184-0.18183-0.22592-0.0772-0.04959-0.23694-0.04959v1.4326h-0.76592zm1.1076 1.6255q0.28102 0 0.44081-0.14326 0.16531-0.14326 0.16531-0.38571 0-0.22041-0.14326-0.33612-0.14327-0.11571-0.41878-0.11571h-0.38571v0.98082z"/>
    <path d="m-242.52 32.047h0.95877l1.361 3.6698h-0.82653l-0.29755-0.83755h-1.4437l-0.28102 0.83755h-0.81551zm0.95877 2.149-0.49592-1.4051-0.47938 1.4051z"/>
    <path d="m-239.77 32.047h0.93674l1.5208 2.5733v-2.5733h0.73285v3.6698h-0.92571l-1.5318-2.5898v2.5898h-0.73286z"/>
    <path d="m-235.03 32.741h-1.0028v-0.69428h2.7992v0.69428h-0.99183v2.9755h-0.80449z"/>
    <path d="m-232.68 32.047h2.2316v0.69428h-1.4437v0.73286h1.1957v0.67224h-1.1957v0.87612h1.4437v0.69428h-2.2316z"/>
    <path d="m-229.76 32.047h2.2316v0.69428h-1.4437v0.73286h1.1957v0.67224h-1.1957v0.87612h1.4437v0.69428h-2.2316z"/>
    <path d="m-226.27 35.722q-0.39123 0-0.58408-0.0055v-3.6698q0.23694-0.0055 0.69979-0.0055 0.46837 0 0.6998 0.0055 0.54 0.0055 0.93673 0.22041 0.40224 0.20939 0.61714 0.60061 0.22041 0.39122 0.22041 0.91469 0 0.57306-0.25347 1.0084-0.24796 0.4353-0.7053 0.67775-0.45184 0.24245-1.0524 0.24796-0.19286 0.0055-0.57857 0.0055zm0.57306-0.69979q0.55653 0 0.87612-0.3251 0.31959-0.3251 0.31959-0.89265 0-0.51245-0.27551-0.78796-0.27-0.27551-0.78245-0.27551h-0.49591v2.2812z"/>
    <path d="m-221.97 32.047h1.2288q0.53449 0 0.84306 0.25898 0.31408 0.25347 0.31408 0.69428 0 0.50143-0.4353 0.77143 0.57857 0.23143 0.57857 0.81551 0 0.33061-0.16531 0.58959-0.1653 0.25347-0.46285 0.39673-0.29204 0.14326-0.66123 0.14326h-1.2398zm1.0414 1.4933q0.27551 0 0.42428-0.12673 0.15429-0.12674 0.15429-0.35265 0-0.40775-0.50694-0.40775h-0.34714v0.88714zm0.0771 1.5649q0.29755 0 0.46285-0.13776 0.17082-0.13776 0.17082-0.36918 0-0.20939-0.14326-0.3251-0.14327-0.11571-0.41327-0.11571h-0.42979v0.94775z"/>
    <path d="m-218.84 32.047h2.2316v0.69428h-1.4437v0.73286h1.1957v0.67224h-1.1957v0.87612h1.4437v0.69428h-2.2316z"/>
    <path d="m-214.95 35.788q-0.31959 0-0.61163-0.07163-0.28653-0.07163-0.49592-0.19286l0.0661-0.73836q0.24796 0.15428 0.51796 0.24245 0.27551 0.08265 0.50694 0.08265 0.26449 0 0.4298-0.1102 0.1653-0.1102 0.1653-0.29204 0-0.14878-0.1102-0.22592-0.11021-0.08265-0.34714-0.17633l-0.13225-0.0551q-0.0275-0.01102-0.0606-0.02204-0.0331-0.01653-0.0771-0.03306-0.30858-0.12673-0.49592-0.23694-0.18735-0.11571-0.3251-0.31959-0.13225-0.20388-0.13225-0.52898 0-0.52898 0.35816-0.83204 0.35817-0.30306 0.99735-0.30306 0.4849 0 0.99183 0.19837l-0.12122 0.72735q-0.20388-0.11571-0.44082-0.18184-0.23142-0.06612-0.44081-0.06612-0.25898 0-0.40224 0.10469-0.14327 0.09918-0.14327 0.27 0 0.14878 0.0992 0.23143 0.0992 0.08265 0.31959 0.17633l0.22592 0.08816q0.31959 0.12122 0.52898 0.23694t0.35816 0.33612q0.14878 0.2149 0.14878 0.56204 0 0.53449-0.36367 0.83204-0.36368 0.29755-1.0139 0.29755z"/>
    <path d="m-212.16 32.741h-1.0028v-0.69428h2.7992v0.69428h-0.99184v2.9755h-0.80449z"/>
    <path d="m-206.88 35.799q-0.61163 0-1.058-0.2149-0.44082-0.22041-0.67776-0.62816-0.23694-0.40776-0.23694-0.96979 0-0.58959 0.24796-1.0414 0.25347-0.45184 0.70531-0.69979 0.45734-0.24796 1.0524-0.24796 0.34164 0 0.6447 0.07714 0.30857 0.07714 0.54551 0.22041l-0.19286 0.66122q-0.2149-0.13224-0.47939-0.20388-0.26449-0.07714-0.51796-0.07714-0.36367 0-0.64469 0.1598-0.27551 0.15429-0.42979 0.44082-0.14878 0.28102-0.14878 0.65571 0 0.55102 0.33061 0.87061 0.33612 0.31408 0.91469 0.31408 0.23143 0 0.4298-0.03306v-0.76041h-0.46286v-0.64469h1.1957v1.9065q-0.56755 0.2149-1.2178 0.2149z"/>
    <path d="m-204.95 32.047q0.1653-0.0055 0.61714-0.0055 0.45734 0 0.62265 0.0055 0.62816 0.02204 0.93673 0.30857 0.30857 0.28102 0.30857 0.76041 0 0.40775-0.20938 0.69428-0.20388 0.28102-0.57306 0.36918 0.11571 0.09367 0.23693 0.25898 0.12123 0.1598 0.33613 0.50143 0.22591 0.35816 0.45734 0.77694h-0.92571l-0.62265-1.1571q-0.0992-0.18184-0.18184-0.22592-0.0771-0.04959-0.23694-0.04959v1.4326h-0.76591zm1.1075 1.6255q0.28102 0 0.44082-0.14326 0.16531-0.14326 0.16531-0.38571 0-0.22041-0.14327-0.33612-0.14326-0.11571-0.41877-0.11571h-0.38572v0.98082z"/>
    <path d="m-200.84 32.047h0.95878l1.361 3.6698h-0.82652l-0.29755-0.83755h-1.4437l-0.28102 0.83755h-0.8155zm0.95878 2.149-0.49592-1.4051-0.47939 1.4051z"/>
    <path d="m-197.51 35.722q-0.39123 0-0.58408-0.0055v-3.6698q0.23694-0.0055 0.69979-0.0055 0.46837 0 0.6998 0.0055 0.53999 0.0055 0.93673 0.22041 0.40224 0.20939 0.61714 0.60061 0.22041 0.39122 0.22041 0.91469 0 0.57306-0.25347 1.0084-0.24796 0.4353-0.70531 0.67775-0.45183 0.24245-1.0524 0.24796-0.19286 0.0055-0.57857 0.0055zm0.57306-0.69979q0.55653 0 0.87612-0.3251 0.31959-0.3251 0.31959-0.89265 0-0.51245-0.27551-0.78796-0.27-0.27551-0.78245-0.27551h-0.49592v2.2812z"/>
    <path d="m-194.31 32.047h2.2316v0.69428h-1.4437v0.73286h1.1957v0.67224h-1.1957v0.87612h1.4437v0.69428h-2.2316z"/>
    <path d="m-190.43 35.788q-0.31959 0-0.61163-0.07163-0.28653-0.07163-0.49592-0.19286l0.0661-0.73836q0.24796 0.15428 0.51796 0.24245 0.27551 0.08265 0.50694 0.08265 0.26449 0 0.42979-0.1102 0.16531-0.1102 0.16531-0.29204 0-0.14878-0.11021-0.22592-0.1102-0.08265-0.34714-0.17633l-0.13224-0.0551q-0.0276-0.01102-0.0606-0.02204-0.0331-0.01653-0.0772-0.03306-0.30857-0.12673-0.49591-0.23694-0.18735-0.11571-0.32511-0.31959-0.13224-0.20388-0.13224-0.52898 0-0.52898 0.35816-0.83204 0.35816-0.30306 0.99735-0.30306 0.48489 0 0.99183 0.19837l-0.12122 0.72735q-0.20388-0.11571-0.44082-0.18184-0.23143-0.06612-0.44081-0.06612-0.25898 0-0.40225 0.10469-0.14326 0.09918-0.14326 0.27 0 0.14878 0.0992 0.23143 0.0992 0.08265 0.31959 0.17633l0.22592 0.08816q0.31959 0.12122 0.52898 0.23694t0.35816 0.33612q0.14878 0.2149 0.14878 0.56204 0 0.53449-0.36368 0.83204-0.36367 0.29755-1.0139 0.29755z"/>
   </g>
   <g fill="#002b42" stroke-width=".26458" aria-label="HTML">
    <path d="m-257.97 44.176h1.8542v3.2766h3.5941v-3.2766h1.8669v8.4582h-1.8669v-3.6068h-3.5941v3.6068h-1.8542z"/>
    <path d="m-247.06 45.776h-2.3114v-1.6002h6.4516v1.6002h-2.286v6.858h-1.8542z"/>
    <path d="m-239.79 46.665-0.5334 5.969h-1.6383l0.8001-8.4582h2.286l2.159 6.0706 2.0955-6.0706h2.286l0.7747 8.4582h-1.651l-0.5842-5.9436-2.2352 6.0325-1.5113 0.1397z"/>
    <path d="m-230.09 44.176h1.8415v6.858h3.048v1.6002h-4.8895z"/>
   </g>
   <g fill="#002b42" stroke-width=".26458" aria-label="HOMEWORK">
    <path d="m-257.97 56.218h1.8542v3.2766h3.5941v-3.2766h1.8669v8.4582h-1.8669v-3.6068h-3.5941v3.6068h-1.8542z"/>
    <path d="m-245.04 64.842q-1.2446 0-2.1971-0.5461t-1.4859-1.5367q-0.5207-0.9906-0.5207-2.2733 0-1.2954 0.5207-2.286t1.4732-1.5367 2.2098-0.5461q1.2446 0 2.1971 0.5461 0.9525 0.5334 1.4732 1.5113t0.5207 2.2606q0 1.3081-0.5207 2.3114-0.5207 0.9906-1.4732 1.5494-0.9525 0.5461-2.1971 0.5461zm0-1.6129q1.0414 0 1.6637-0.7493 0.635-0.7493 0.635-1.9939 0-0.8128-0.2921-1.4351-0.2794-0.635-0.8128-0.9652-0.5207-0.3429-1.1938-0.3429t-1.2065 0.3429q-0.5207 0.3302-0.8128 0.9652-0.2794 0.6223-0.2794 1.4351t0.2794 1.4351q0.2921 0.6223 0.8128 0.9652t1.2065 0.3429z"/>
    <path d="m-237.61 58.707-0.5334 5.969h-1.6383l0.8001-8.4582h2.286l2.159 6.0706 2.0955-6.0706h2.286l0.7747 8.4582h-1.651l-0.5842-5.9436-2.2352 6.0325-1.5113 0.1397z"/>
    <path d="m-227.91 56.218h5.1435v1.6002h-3.3274v1.6891h2.7559v1.5494h-2.7559v2.0193h3.3274v1.6002h-5.1435z"/>
    <path d="m-221.54 56.218h1.9558l1.4732 6.0833 1.5113-6.0325 2.3749-0.1778 1.6002 6.3881 1.4859-6.2611h1.8161l-2.286 8.4582h-2.2225l-1.6383-6.6929-1.7018 6.6929h-2.1971z"/>
    <path d="m-204.44 64.842q-1.2446 0-2.1971-0.5461t-1.4859-1.5367q-0.5207-0.9906-0.5207-2.2733 0-1.2954 0.5207-2.286t1.4732-1.5367 2.2098-0.5461q1.2446 0 2.1971 0.5461 0.9525 0.5334 1.4732 1.5113t0.5207 2.2606q0 1.3081-0.5207 2.3114-0.5207 0.9906-1.4732 1.5494-0.9525 0.5461-2.1971 0.5461zm0-1.6129q1.0414 0 1.6637-0.7493 0.635-0.7493 0.635-1.9939 0-0.8128-0.2921-1.4351-0.2794-0.635-0.8128-0.9652-0.5207-0.3429-1.1938-0.3429t-1.2065 0.3429q-0.5207 0.3302-0.8128 0.9652-0.2794 0.6223-0.2794 1.4351t0.2794 1.4351q0.2921 0.6223 0.8128 0.9652t1.2065 0.3429z"/>
    <path d="m-198.91 56.218q0.381-0.0127 1.4224-0.0127 1.0541 0 1.4351 0.0127 1.4478 0.0508 2.159 0.7112 0.7112 0.6477 0.7112 1.7526 0 0.9398-0.4826 1.6002-0.4699 0.6477-1.3208 0.8509 0.2667 0.2159 0.5461 0.5969 0.2794 0.3683 0.7747 1.1557 0.5207 0.8255 1.0541 1.7907h-2.1336l-1.4351-2.667q-0.2286-0.4191-0.4191-0.5207-0.1778-0.1143-0.5461-0.1143v3.302h-1.7653zm2.5527 3.7465q0.6477 0 1.016-0.3302 0.381-0.3302 0.381-0.889 0-0.508-0.3302-0.7747t-0.9652-0.2667h-0.889v2.2606z"/>
    <path d="m-191.74 56.218h1.8415v3.2766l2.7559-3.2766h2.1971l-3.4798 4.0132 3.302 4.445h-2.2352l-2.54-3.4163v3.4163h-1.8415z"/>
   </g>
   <g fill="#f9f9f9" stroke-width=".26458" aria-label="IN YOUR">
    <path d="m-257.97 37.206h0.79898v3.6698h-0.79898z"/>
    <path d="m-256.36 37.206h0.93674l1.5208 2.5733v-2.5733h0.73286v3.6698h-0.92572l-1.5318-2.5898v2.5898h-0.73286z"/>
    <path d="m-250.54 39.349-1.2288-2.1435h0.89816l0.74387 1.4492 0.73837-1.4492h0.88163l-1.2343 2.1435v1.5263h-0.79898z"/>
    <path d="m-246.59 40.947q-0.54 0-0.95326-0.23694-0.41327-0.23694-0.64469-0.66673-0.22592-0.4298-0.22592-0.98632 0-0.56204 0.22592-0.99184 0.22591-0.4298 0.63918-0.66673 0.41326-0.23694 0.95877-0.23694 0.54 0 0.95326 0.23694 0.41327 0.23143 0.63919 0.65571 0.22591 0.42428 0.22591 0.98081 0 0.56755-0.22591 1.0029-0.22592 0.4298-0.63919 0.67224-0.41326 0.23694-0.95326 0.23694zm0-0.6998q0.45184 0 0.72184-0.3251 0.27551-0.3251 0.27551-0.8651 0-0.35265-0.12674-0.62265-0.12122-0.27551-0.35265-0.41878-0.22592-0.14878-0.51796-0.14878t-0.52347 0.14878q-0.22592 0.14326-0.35265 0.41878-0.12122 0.27-0.12122 0.62265 0 0.35265 0.12122 0.62265 0.12673 0.27 0.35265 0.41877t0.52347 0.14878z"/>
    <path d="m-242.6 40.947q-0.45735 0-0.80449-0.19286t-0.54-0.54q-0.18734-0.35265-0.18734-0.81v-2.1986h0.80448v2.138q0 0.40775 0.19286 0.6502 0.19837 0.23694 0.53449 0.23694t0.53449-0.23694q0.19836-0.24245 0.19836-0.6502v-2.138h0.79898v2.1986q0 0.45735-0.19285 0.81-0.18735 0.34714-0.53449 0.54t-0.80449 0.19286z"/>
    <path d="m-240.32 37.206q0.16531-0.0055 0.61714-0.0055 0.45735 0 0.62265 0.0055 0.62817 0.02204 0.93674 0.30857 0.30857 0.28102 0.30857 0.76041 0 0.40776-0.20939 0.69428-0.20388 0.28102-0.57306 0.36918 0.11571 0.09367 0.23694 0.25898 0.12122 0.1598 0.33612 0.50143 0.22592 0.35816 0.45735 0.77694h-0.92572l-0.62265-1.1571q-0.0992-0.18184-0.18183-0.22592-0.0771-0.04959-0.23694-0.04959v1.4326h-0.76592zm1.1076 1.6255q0.28102 0 0.44081-0.14326 0.16531-0.14326 0.16531-0.38571 0-0.22041-0.14326-0.33612-0.14327-0.11571-0.41878-0.11571h-0.38571v0.98081z"/>
   </g>
   <g fill="#178b5d" stroke-width=".26458" aria-label="www.letstacle.com">
    <path d="m-203.77 93.32-0.60151 2.3089h-0.35967l-0.59325-1.7797-0.58911 1.7797h-0.3576l-0.60771-2.3089h0.40514l0.42375 1.788 0.5767-1.788h0.3204l0.59118 1.788 0.40101-1.788z"/>
    <path d="m-200.31 93.32-0.60152 2.3089h-0.35966l-0.59325-1.7797-0.58911 1.7797h-0.3576l-0.60772-2.3089h0.40515l0.42374 1.788 0.57671-1.788h0.3204l0.59117 1.788 0.40101-1.788z"/>
    <path d="m-196.84 93.32-0.60152 2.3089h-0.35967l-0.59324-1.7797-0.58911 1.7797h-0.3576l-0.60772-2.3089h0.40514l0.42375 1.788 0.57671-1.788h0.32039l0.59118 1.788 0.40101-1.788z"/>
    <path d="m-195.79 95.629h-0.49402v-0.58911h0.49402z"/>
    <path d="m-194.49 95.629h-0.38861v-3.2163h0.38861z"/>
    <path d="m-191.79 94.514h-1.7012q0 0.21291 0.0641 0.37207 0.0641 0.1571 0.1757 0.25838 0.10748 0.09922 0.25425 0.14883 0.14882 0.04961 0.32659 0.04961 0.23564 0 0.47336-0.09302 0.23978-0.09508 0.34106-0.18604h0.0207v0.42375q-0.19637 0.08268-0.40101 0.13849-0.20464 0.05581-0.42995 0.05581-0.57464 0-0.8971-0.31006-0.32246-0.31213-0.32246-0.8847 0-0.56637 0.30799-0.89917 0.31006-0.3328 0.81442-0.3328 0.46716 0 0.71934 0.27285 0.25425 0.27285 0.25425 0.77515zm-0.37827-0.29766q-2e-3 -0.30592-0.15503-0.47336-0.1509-0.16743-0.46096-0.16743-0.31212 0-0.49816 0.18397-0.18397 0.18397-0.20877 0.45682z"/>
    <path d="m-190 95.608q-0.10955 0.02894-0.23978 0.04754-0.12815 0.0186-0.22944 0.0186-0.35347 0-0.53743-0.19017-0.18397-0.19017-0.18397-0.60978v-1.2278h-0.26252v-0.3266h0.26252v-0.66352h0.3886v0.66353h0.80202v0.3266h-0.80202v1.0521q0 0.1819 8e-3 0.28525 8e-3 0.10129 0.0579 0.19017 0.0455 0.08268 0.12402 0.12196 0.0806 0.03721 0.24392 0.03721 0.0951 0 0.19843-0.02687 0.10336-0.02894 0.14883-0.04754h0.0207z"/>
    <path d="m-187.88 94.963q0 0.31626-0.26251 0.51883-0.26045 0.20257-0.71314 0.20257-0.25631 0-0.47129-0.05994-0.21291-0.06201-0.3576-0.13436v-0.43615h0.0207q0.18397 0.13849 0.40928 0.22118 0.22531 0.08061 0.43201 0.08061 0.25632 0 0.40101-0.08268 0.1447-0.08268 0.1447-0.26045 0-0.13643-0.0785-0.20671-0.0786-0.07028-0.30179-0.11989-0.0827-0.0186-0.21704-0.04341-0.13229-0.0248-0.24185-0.05374-0.30386-0.08062-0.43201-0.23564-0.12609-0.1571-0.12609-0.38447 0-0.14263 0.0579-0.26872 0.0599-0.12609 0.17984-0.22531 0.11575-0.09715 0.29352-0.15296 0.17983-0.05788 0.40101-0.05788 0.2067 0 0.41754 0.05168 0.21291 0.04961 0.35347 0.12196v0.41548h-0.0207q-0.14883-0.10955-0.36173-0.18397-0.21291-0.07648-0.41755-0.07648-0.21291 0-0.35967 0.08268-0.14676 0.08061-0.14676 0.24184 0 0.14263 0.0889 0.21497 0.0868 0.07235 0.28112 0.11782 0.10749 0.0248 0.23978 0.04961 0.13436 0.02481 0.22325 0.04547 0.27078 0.06201 0.41754 0.21291 0.14676 0.15296 0.14676 0.40514z"/>
    <path d="m-186.12 95.608q-0.10955 0.02894-0.23978 0.04754-0.12816 0.0186-0.22944 0.0186-0.35347 0-0.53744-0.19017-0.18396-0.19017-0.18396-0.60978v-1.2278h-0.26252v-0.3266h0.26252v-0.66352h0.3886v0.66353h0.80202v0.3266h-0.80202v1.0521q0 0.1819 8e-3 0.28525 8e-3 0.10129 0.0579 0.19017 0.0455 0.08268 0.12402 0.12196 0.0806 0.03721 0.24391 0.03721 0.0951 0 0.19844-0.02687 0.10335-0.02894 0.14883-0.04754h0.0207z"/>
    <path d="m-183.86 95.629h-0.38654v-0.24598q-0.0517 0.03514-0.14056 0.09922-0.0868 0.06201-0.1695 0.09922-0.0971 0.04754-0.22324 0.07855-0.1261 0.03307-0.29559 0.03307-0.31213 0-0.52917-0.2067-0.21704-0.20671-0.21704-0.5271 0-0.26252 0.11162-0.42375 0.11369-0.1633 0.32246-0.25632 0.21084-0.09302 0.50643-0.12609t0.63459-0.04961v-0.05994q0-0.13229-0.0476-0.21911-0.0455-0.08682-0.13229-0.13643-0.0827-0.04754-0.19844-0.06408-0.11575-0.01654-0.24184-0.01654-0.15296 0-0.34107 0.04134-0.1881 0.03927-0.3886 0.11576h-0.0207v-0.39481q0.11369-0.03101 0.32866-0.06821 0.21497-0.03721 0.42375-0.03721 0.24391 0 0.42374 0.04134 0.1819 0.03928 0.3142 0.13643 0.13022 0.09509 0.19843 0.24598 0.0682 0.1509 0.0682 0.37414zm-0.38654-0.56844v-0.64286q-0.17777 0.01034-0.41962 0.03101-0.23978 0.02067-0.38034 0.05994-0.16743 0.04754-0.27078 0.14883-0.10335 0.09922-0.10335 0.27492 0 0.19844 0.11989 0.29972 0.11989 0.09922 0.36587 0.09922 0.20463 0 0.37413-0.07855 0.1695-0.08061 0.3142-0.19224z"/>
    <path d="m-181.4 95.484q-0.1943 0.09302-0.37 0.14469-0.17363 0.05168-0.37 0.05168-0.25012 0-0.45889-0.07235-0.20877-0.07441-0.3576-0.22324-0.1509-0.14883-0.23358-0.3762-0.0827-0.22738-0.0827-0.53123 0-0.56637 0.31006-0.88884 0.31212-0.32246 0.82269-0.32246 0.19843 0 0.3886 0.05581 0.19224 0.05581 0.3514 0.13643v0.43202h-0.0207q-0.17776-0.13849-0.36793-0.21291-0.18811-0.07441-0.36794-0.07441-0.33073 0-0.52297 0.22324-0.19016 0.22118-0.19016 0.65112 0 0.41754 0.18603 0.64286 0.1881 0.22324 0.5271 0.22324 0.11782 0 0.23978-0.03101t0.21911-0.08061q0.0848-0.04341 0.15916-0.09095 0.0744-0.04961 0.11782-0.08475h0.0207z"/>
    <path d="m-180.5 95.629h-0.3886v-3.2163h0.3886z"/>
    <path d="m-177.8 94.514h-1.7012q0 0.21291 0.0641 0.37207 0.0641 0.1571 0.1757 0.25838 0.10749 0.09922 0.25425 0.14883 0.14883 0.04961 0.32659 0.04961 0.23565 0 0.47336-0.09302 0.23978-0.09508 0.34106-0.18604h0.0207v0.42375q-0.19637 0.08268-0.401 0.13849-0.20464 0.05581-0.42995 0.05581-0.57464 0-0.8971-0.31006-0.32247-0.31213-0.32247-0.8847 0-0.56637 0.308-0.89917 0.31005-0.3328 0.81442-0.3328 0.46715 0 0.71933 0.27285 0.25425 0.27285 0.25425 0.77515zm-0.37827-0.29766q-2e-3 -0.30592-0.15503-0.47336-0.1509-0.16743-0.46095-0.16743-0.31213 0-0.49817 0.18397-0.18396 0.18397-0.20877 0.45682z"/>
    <path d="m-176.57 95.629h-0.49403v-0.58911h0.49403z"/>
    <path d="m-173.96 95.484q-0.1943 0.09302-0.37 0.14469-0.17364 0.05168-0.37001 0.05168-0.25011 0-0.45888-0.07235-0.20878-0.07441-0.3576-0.22324-0.1509-0.14883-0.23358-0.3762-0.0827-0.22738-0.0827-0.53123 0-0.56637 0.31006-0.88884 0.31212-0.32246 0.82268-0.32246 0.19844 0 0.38861 0.05581 0.19224 0.05581 0.3514 0.13643v0.43202h-0.0207q-0.17777-0.13849-0.36794-0.21291-0.1881-0.07441-0.36793-0.07441-0.33073 0-0.52297 0.22324-0.19017 0.22118-0.19017 0.65112 0 0.41754 0.18604 0.64286 0.1881 0.22324 0.5271 0.22324 0.11782 0 0.23978-0.03101 0.12195-0.03101 0.2191-0.08061 0.0848-0.04341 0.15917-0.09095 0.0744-0.04961 0.11782-0.08475h0.0207z"/>
    <path d="m-171.5 94.475q0 0.56431-0.28939 0.8909t-0.77515 0.3266q-0.48989 0-0.77928-0.3266-0.28732-0.3266-0.28732-0.8909 0-0.56431 0.28732-0.8909 0.28939-0.32866 0.77928-0.32866 0.48576 0 0.77515 0.32866 0.28939 0.3266 0.28939 0.8909zm-0.40101 0q0-0.44855-0.1757-0.66559-0.1757-0.21911-0.48783-0.21911-0.31626 0-0.49196 0.21911-0.17363 0.21704-0.17363 0.66559 0 0.43408 0.1757 0.65939 0.1757 0.22324 0.48989 0.22324 0.31006 0 0.48576-0.22118 0.17777-0.22324 0.17777-0.66146z"/>
    <path d="m-167.52 95.629h-0.38861v-1.3146q0-0.14883-0.0145-0.28732-0.0124-0.13849-0.0558-0.22118-0.0475-0.08888-0.13642-0.13436-0.0889-0.04548-0.25632-0.04548-0.16329 0-0.32659 0.08268-0.1633 0.08061-0.3266 0.2067 6e-3 0.04754 0.0103 0.11162 4e-3 0.06201 4e-3 0.12402v1.4779h-0.3886v-1.3146q0-0.15296-0.0145-0.28939-0.0124-0.13849-0.0558-0.22118-0.0476-0.08888-0.13643-0.13229-0.0889-0.04548-0.25632-0.04548-0.15916 0-0.32039 0.07855-0.15916 0.07855-0.31833 0.2005v1.7239h-0.3886v-2.3089h0.3886v0.25632q0.18191-0.1509 0.36174-0.23564 0.1819-0.08475 0.38654-0.08475 0.23564 0 0.39894 0.09922 0.16537 0.09922 0.24598 0.27492 0.23565-0.19844 0.42995-0.28525 0.1943-0.08888 0.41548-0.08888 0.38034 0 0.56017 0.23151 0.1819 0.22944 0.1819 0.64286z"/>
   </g>
  </g>
 </g>
</svg>
